<?xml version="1.0" encoding="UTF-8" standalone="no"?>
<!DOCTYPE svg PUBLIC "-//W3C//DTD SVG 1.1//EN" "http://www.w3.org/Graphics/SVG/1.1/DTD/svg11.dtd">
<svg width="100%" height="100%" viewBox="0 0 16 16" version="1.1" xmlns="http://www.w3.org/2000/svg" xmlns:xlink="http://www.w3.org/1999/xlink" xml:space="preserve" xmlns:serif="http://www.serif.com/" style="fill-rule:evenodd;clip-rule:evenodd;stroke-linejoin:round;stroke-miterlimit:2;">
    <path id="Table" d="M12.5,0L12.5,16L3.5,16L3.5,0L12.5,0ZM8,5.208C7.426,5.208 6.96,5.674 6.96,6.248C6.96,6.822 7.426,7.288 8,7.288C8.574,7.288 9.04,6.822 9.04,6.248C9.04,5.674 8.574,5.208 8,5.208ZM9.38,2.746C8.805,2.746 8.339,3.212 8.339,3.787C8.339,4.361 8.805,4.827 9.38,4.827C9.954,4.827 10.42,4.361 10.42,3.787C10.42,3.212 9.954,2.746 9.38,2.746ZM11.38,12.222C11.134,12.093 10.84,12.095 10.612,12.227C10.484,12.299 8.352,13.982 8.289,14.058C8.225,14.14 8.192,14.306 8.22,14.412C8.276,14.615 8.454,14.74 8.659,14.724C8.716,14.719 9.046,14.591 9.865,14.251C11.469,13.588 11.41,13.612 11.517,13.518C11.654,13.396 11.712,13.299 11.758,13.121C11.79,13 11.796,12.949 11.789,12.865C11.766,12.596 11.608,12.344 11.38,12.222ZM10.935,12.591C11.161,12.583 11.322,12.773 11.264,12.985C11.179,13.312 10.703,13.294 10.644,12.963C10.614,12.787 10.759,12.597 10.935,12.591ZM4.62,12.222C4.392,12.344 4.234,12.596 4.211,12.865C4.204,12.949 4.21,13 4.242,13.121C4.288,13.299 4.346,13.396 4.483,13.518C4.59,13.612 4.531,13.588 6.135,14.251C6.954,14.591 7.284,14.719 7.341,14.724C7.546,14.74 7.724,14.615 7.78,14.412C7.808,14.306 7.775,14.14 7.711,14.058C7.648,13.982 5.516,12.299 5.388,12.227C5.16,12.095 4.866,12.093 4.62,12.222ZM5.065,12.591C5.241,12.597 5.386,12.787 5.356,12.963C5.297,13.294 4.821,13.312 4.736,12.985C4.678,12.773 4.839,12.583 5.065,12.591ZM6.62,2.746C6.046,2.746 5.58,3.212 5.58,3.787C5.58,4.361 6.046,4.827 6.62,4.827C7.195,4.827 7.661,4.361 7.661,3.787C7.661,3.212 7.195,2.746 6.62,2.746Z" style="fill:rgb(8,6,5);"/>
</svg>
